<svg width="35" height="34" viewBox="0 0 35 34" fill="none" xmlns="http://www.w3.org/2000/svg">
<path d="M23.7453 21.2742C23.5963 21.2741 23.4533 21.2148 23.3479 21.1094C23.2425 21.004 23.1833 20.8611 23.1832 20.712L23.1825 12.5244L12.4758 23.2311C12.3703 23.3366 12.2273 23.3959 12.0781 23.3959C11.9289 23.3959 11.7858 23.3366 11.6803 23.2311C11.5748 23.1256 11.5156 22.9825 11.5156 22.8334C11.5156 22.6842 11.5748 22.5411 11.6803 22.4356L22.387 11.7289L14.1994 11.7283C14.0537 11.7231 13.9158 11.6616 13.8145 11.5568C13.7133 11.4519 13.6567 11.3119 13.6567 11.1661C13.6567 11.0204 13.7133 10.8803 13.8145 10.7754C13.9158 10.6706 14.0537 10.6091 14.1994 10.604L23.7453 10.604C23.8944 10.604 24.0373 10.6633 24.1427 10.7687C24.2481 10.8741 24.3074 11.017 24.3075 11.1661L24.3075 20.712C24.3074 20.8611 24.2481 21.004 24.1427 21.1094C24.0373 21.2148 23.8944 21.2741 23.7453 21.2742Z" fill="white"/>
</svg>
