<svg width="54" height="54" viewBox="0 0 54 54" fill="none" xmlns="http://www.w3.org/2000/svg">
<path d="M25.4608 2.21484L23.8556 5.87988C23.0246 5.93052 22.1979 6.03515 21.3805 6.19313L18.925 3.02231L16.2784 3.92217L16.2652 7.95635C15.144 8.53263 14.0696 9.22936 13.0547 10.0425L9.31426 8.3584L7.39927 10.3953L9.31416 14.0273C8.70323 14.8983 8.16635 15.8189 7.70913 16.7794L3.60239 16.8915L2.76855 19.5577L6.08428 22.0001C5.92555 22.9894 5.84803 23.9891 5.8436 24.9896L2.16211 26.855L2.5477 29.6235L6.58853 30.4146C6.83022 31.2603 7.12975 32.0884 7.48501 32.8931L4.82203 36.199L6.3084 38.5653L10.4481 37.5963C10.71 37.9046 10.9815 38.2046 11.2621 38.496C11.848 39.1022 12.4723 39.6703 13.131 40.1967L12.3268 44.343L14.746 45.7404L17.9067 42.9883C18.8111 43.3518 19.7422 43.6449 20.6918 43.865L21.7235 47.9156L24.5084 48.1431L26.1827 44.323C27.3397 44.2534 28.4929 44.0805 29.6269 43.8022L32.2868 46.884L34.8806 45.8458L34.8047 44.2835L28.7501 39.6924C26.9876 40.138 25.1598 40.2573 23.3646 40.0548C20.0155 39.6772 16.7971 38.1648 14.2713 35.5528C8.49815 29.5818 8.6632 20.0837 14.6339 14.3107C17.5258 11.5144 21.2457 10.0959 24.9698 10.0557C28.9344 10.0129 32.9026 11.5318 35.8793 14.6106C40.724 19.6216 41.3844 27.1598 37.9425 32.8667L41.3143 35.4243C41.7336 34.767 42.1123 34.0845 42.4481 33.3809L46.525 33.2687L47.3588 30.6025L44.0664 28.1767C44.2254 27.1793 44.3058 26.1709 44.3069 25.1609L47.9654 23.3021L47.5799 20.5335L43.5426 19.7425C43.2028 18.573 42.7525 17.4385 42.1978 16.3543L44.6036 13.0221L42.9952 10.738L39.0338 11.8882C38.984 11.8355 38.9357 11.782 38.8853 11.73C38.2617 11.0849 37.5944 10.4836 36.888 9.9303L37.6461 6.01478L35.2266 4.61742L32.2207 7.23452C31.2476 6.84292 30.2482 6.53811 29.2346 6.31167L28.2492 2.44223L25.4608 2.21484ZM19.3271 18.4043C18.2362 18.4167 17.1548 18.6846 16.1631 19.1721L20.9324 22.7912C22.3748 23.8855 22.7839 25.9652 21.677 27.4251C20.5698 28.8859 18.4437 29.1055 16.9805 27.9955L12.2145 24.3798C11.7265 26.9947 12.6507 29.7654 14.9139 31.4825C16.9437 33.0221 19.5486 33.3103 21.7926 32.5043L22.2967 32.3229L22.7218 32.646L36.9801 43.4632L37.4051 43.7862L37.3688 44.3202C37.1962 46.6985 38.1694 49.1306 40.2 50.6712C42.4634 52.3882 45.3833 52.5306 47.7706 51.3567L43.0049 47.7413C41.5416 46.6311 41.1822 44.5238 42.2898 43.0644C43.3972 41.6047 45.5105 41.4396 46.9533 42.5336L51.7192 46.1494C52.2061 43.5355 51.2858 40.7635 49.0231 39.0467C46.9862 37.5008 44.4018 37.1945 42.171 37.9886L41.6701 38.1666L41.245 37.8436L26.9867 27.0265L26.5617 26.7034L26.598 26.1729C26.7614 23.8118 25.77 21.4064 23.7337 19.8611C22.4107 18.8575 20.8627 18.3869 19.3273 18.4044L19.3271 18.4043ZM23.9217 27.9229L41.2054 41.0373L40.0155 42.6094L22.7285 29.4917L23.9217 27.9229Z" fill="#B91C1C"/>
</svg>
