<svg width="40" height="40" viewBox="0 0 40 40" fill="none" xmlns="http://www.w3.org/2000/svg">
<path d="M4.66354 35.9449C3.88449 35.9449 3.26949 35.6944 2.81854 35.1934C2.40282 34.7306 2.17901 34.1234 2.14711 33.372L2.14282 33.1813V6.33557C2.14282 5.4851 2.36806 4.812 2.81854 4.31629C3.23425 3.85819 3.7902 3.61153 4.48639 3.57629L4.66425 3.57129H23.8121C24.5812 3.57129 25.1912 3.81938 25.6421 4.31557C26.0578 4.77272 26.2816 5.38153 26.3135 6.142L26.3171 6.33486V11.042H35.3528C36.0623 11.042 36.6364 11.2556 37.075 11.6827L37.1821 11.7941C37.5983 12.2561 37.8221 12.863 37.8535 13.6149L37.8578 13.8056V33.1813C37.8578 34.0213 37.6326 34.692 37.1821 35.1934C36.7664 35.6553 36.2147 35.9044 35.5271 35.9406L35.3521 35.9449H4.66354ZM26.3164 33.1813C26.3164 33.2908 26.3126 33.3972 26.305 33.5006H34.5464C34.8402 33.5006 35.0581 33.4296 35.2 33.2877C35.3214 33.1658 35.3907 32.9849 35.4078 32.7449L35.4128 32.6199V14.3677C35.4128 14.0639 35.3419 13.8411 35.2 13.6991C35.0785 13.5777 34.9012 13.5084 34.6678 13.4913L34.5464 13.487L26.3164 13.4863V33.1813ZM23.0071 6.01629H5.46854C5.16473 6.01629 4.94187 6.087 4.79997 6.22843C4.67854 6.35034 4.60925 6.53129 4.59211 6.77129L4.58782 6.897V32.6199C4.58782 32.9232 4.65854 33.1458 4.79997 33.2877C4.92187 33.4091 5.10282 33.4784 5.34282 33.4956L5.46854 33.5006L8.94496 33.4999V29.0213C8.94496 28.4227 9.06878 27.9687 9.31639 27.6591L9.39354 27.5706C9.66497 27.2896 10.0683 27.1365 10.6035 27.1113L10.7678 27.1077H17.6921C18.3193 27.1077 18.7797 27.262 19.0735 27.5706C19.3407 27.8515 19.4864 28.2765 19.5107 28.8456L19.5143 29.0206L19.5135 33.4999H23.0064C23.3002 33.4999 23.5178 33.4291 23.6593 33.2877C23.7807 33.1658 23.8502 32.9849 23.8678 32.7449L23.8721 32.6199V6.897C23.8721 6.59319 23.8012 6.37034 23.6593 6.22843C23.5178 6.087 23.3009 6.01629 23.0071 6.01629ZM17.0393 29.097H11.4207C11.1264 29.097 10.9657 29.2308 10.9385 29.4984L10.935 29.5827L10.9343 33.4999H17.5243V29.5827C17.5243 29.2884 17.3907 29.1277 17.1235 29.1006L17.0393 29.097ZM32.0871 27.5934C32.4023 27.5934 32.5731 27.738 32.5993 28.027L32.6028 28.1099V30.4784C32.6028 30.7941 32.4583 30.9651 32.1693 30.9913L32.0871 30.9949H29.6421C29.3364 30.9949 29.1704 30.8503 29.1443 30.5613L29.1414 30.4784V28.1099C29.1414 27.7941 29.2819 27.6232 29.5628 27.597L29.6421 27.5934H32.0871ZM32.0871 21.7934C32.4023 21.7934 32.5731 21.938 32.5993 22.227L32.6028 22.3091V24.6777C32.6028 24.9934 32.4583 25.1644 32.1693 25.1906L32.0871 25.1941H29.6421C29.3364 25.1941 29.1704 25.0496 29.1443 24.7606L29.1414 24.6777V22.3091C29.1414 21.9934 29.2819 21.8225 29.5628 21.7963L29.6421 21.7927L32.0871 21.7934ZM12.1493 20.5627C12.5331 20.5627 12.7395 20.7396 12.7685 21.0934L12.7721 21.1856V24.0556C12.7721 24.4384 12.5952 24.6446 12.2414 24.6741L12.1493 24.6777H9.18854C8.82425 24.6777 8.62806 24.5011 8.59997 24.1477L8.59639 24.0549V21.1856C8.59639 20.8027 8.76449 20.5963 9.10068 20.5663L9.18854 20.5627H12.1493ZM19.2564 20.5627C19.6393 20.5627 19.8454 20.7396 19.875 21.0934L19.8785 21.1856V24.0556C19.8785 24.4384 19.7016 24.6446 19.3478 24.6741L19.2557 24.6777H16.31C15.9362 24.6777 15.735 24.5011 15.7064 24.1477L15.7028 24.0549V21.1856C15.7028 20.8027 15.8752 20.5963 16.22 20.5663L16.31 20.5627H19.2564ZM32.0871 15.992C32.4023 15.992 32.5731 16.1368 32.5993 16.4263L32.6028 16.5084V18.8777C32.6028 19.193 32.4583 19.3637 32.1693 19.3899L32.0871 19.3934H29.6421C29.3364 19.3934 29.1704 19.2489 29.1443 18.9599L29.1414 18.8777V16.5084C29.1414 16.1937 29.2819 16.0227 29.5628 15.9956L29.6421 15.992H32.0871ZM12.1493 14.5491C12.5331 14.5491 12.7395 14.7263 12.7685 15.0806L12.7721 15.172V18.042C12.7721 18.4258 12.5952 18.6322 12.2414 18.6613L12.1493 18.6649H9.18854C8.82425 18.6649 8.62806 18.488 8.59997 18.1341L8.59639 18.042V15.172C8.59639 14.7891 8.76449 14.583 9.10068 14.5534L9.18854 14.5499L12.1493 14.5491ZM19.2564 14.5491C19.6393 14.5491 19.8454 14.7263 19.875 15.0806L19.8785 15.172V18.042C19.8785 18.4258 19.7016 18.6322 19.3478 18.6613L19.2557 18.6649H16.31C15.9362 18.6649 15.735 18.488 15.7064 18.1341L15.7028 18.042V15.172C15.7028 14.7891 15.8752 14.583 16.22 14.5534L16.31 14.5499L19.2564 14.5491ZM12.1493 8.537C12.5331 8.537 12.7395 8.71367 12.7685 9.067L12.7721 9.15986V12.0291C12.7721 12.412 12.5952 12.6182 12.2414 12.6477L12.1493 12.652H9.18854C8.82425 12.652 8.62806 12.4751 8.59997 12.1213L8.59639 12.0291V9.15915C8.59639 8.77629 8.76449 8.5701 9.10068 8.54057L9.18854 8.537H12.1493ZM19.2564 8.537C19.6393 8.537 19.8454 8.71367 19.875 9.067L19.8785 9.15986V12.0291C19.8785 12.412 19.7016 12.6182 19.3478 12.6477L19.2557 12.652H16.31C15.9362 12.652 15.735 12.4751 15.7064 12.1213L15.7028 12.0291V9.15915C15.7028 8.77629 15.8752 8.5701 16.22 8.54057L16.31 8.537H19.2564Z" fill="#B91C1C"/>
</svg>
