<svg width="36" height="36" viewBox="0 0 36 36" fill="none" xmlns="http://www.w3.org/2000/svg">
<circle cx="18" cy="18" r="18" fill="#0E2D65"/>
<path d="M21.7925 17.332C21.7923 16.214 21.3481 15.1418 20.5575 14.3512C19.7669 13.5606 18.6947 13.1164 17.5767 13.1162M24.6825 17.037C24.6825 16.1512 24.508 15.274 24.169 14.4556C23.83 13.6372 23.3331 12.8936 22.7067 12.2673C22.0803 11.6409 21.3366 11.1441 20.5182 10.8052C19.6997 10.4663 18.8225 10.2919 17.9367 10.292M17.4425 24.8478C17.1925 24.7337 16.9434 24.6195 16.6942 24.4837C15.472 23.7931 14.3492 22.9398 13.3567 21.947C12.0706 20.7358 11.0139 19.3022 10.2375 17.7153C9.8222 16.8629 9.54164 15.9513 9.40586 15.0128C9.22268 14.0646 9.32775 13.0833 9.70753 12.1953C9.94183 11.8136 10.2248 11.464 10.5492 11.1553C10.6809 11.008 10.8409 10.8888 11.0198 10.8049C11.1986 10.721 11.3926 10.6741 11.59 10.667C12.0009 10.7287 12.3734 10.9437 12.63 11.2695C13.1917 11.8937 13.7942 12.4553 14.3867 13.0478C14.62 13.2478 14.7659 13.5312 14.7925 13.8378C14.7825 14.0962 14.6834 14.342 14.5117 14.5345C14.3142 14.7845 14.075 15.0128 13.8467 15.2512C13.7086 15.3841 13.603 15.5471 13.538 15.7274C13.4729 15.9078 13.4503 16.1007 13.4717 16.2912C13.615 16.737 13.8609 17.1437 14.1892 17.477C14.5831 18.0144 14.9959 18.5378 15.4267 19.0462C16.2302 19.9731 17.182 20.7602 18.2434 21.3753C18.3903 21.4863 18.5641 21.5563 18.7469 21.5783C18.9297 21.6003 19.1151 21.5734 19.2842 21.5003C19.6367 21.3028 19.9509 21.042 20.2092 20.7312C20.433 20.4589 20.7534 20.2836 21.1034 20.242C21.415 20.2587 21.7084 20.392 21.925 20.617C22.205 20.8553 22.4442 21.1362 22.7042 21.3962C22.9642 21.6562 23.1725 21.8437 23.3909 22.082C23.6525 22.3131 23.8984 22.5592 24.1284 22.8203C24.3067 23.0512 24.3925 23.3412 24.3675 23.6312C24.2747 23.9784 24.0746 24.2875 23.7959 24.5145C23.4033 24.9226 22.9264 25.2402 22.3985 25.445C21.8706 25.6498 21.3043 25.737 20.7392 25.7003C19.595 25.6368 18.474 25.3471 17.4425 24.8478Z" stroke="white" stroke-width="1.25" stroke-miterlimit="10" stroke-linecap="round"/>
</svg>
