<svg width="24" height="25" viewBox="0 0 24 25" fill="none" xmlns="http://www.w3.org/2000/svg">
<path d="M7.5 11C6.90666 11 6.32664 10.8241 5.83329 10.4944C5.33994 10.1648 4.95543 9.69623 4.72836 9.14805C4.5013 8.59987 4.44189 7.99667 4.55765 7.41473C4.6734 6.83279 4.95912 6.29824 5.37868 5.87868C5.79824 5.45912 6.33279 5.1734 6.91473 5.05765C7.49667 4.94189 8.09987 5.0013 8.64805 5.22836C9.19623 5.45543 9.66477 5.83994 9.99441 6.33329C10.3241 6.82664 10.5 7.40666 10.5 8C10.499 8.79535 10.1826 9.55783 9.62023 10.1202C9.05783 10.6826 8.29535 10.999 7.5 11ZM7.5 6.5C7.20339 6.49971 6.91336 6.58735 6.66655 6.75186C6.41974 6.91637 6.22725 7.15036 6.1134 7.42425C5.99955 7.69813 5.96946 7.99963 6.02693 8.29061C6.08439 8.5816 6.22684 8.84902 6.43625 9.05907C6.64567 9.26912 6.91266 9.41236 7.20348 9.4707C7.49429 9.52904 7.79588 9.49985 8.0701 9.38682C8.34433 9.2738 8.5789 9.082 8.74414 8.83569C8.90939 8.58938 8.99791 8.29961 8.9985 8.003C8.9989 7.80589 8.96044 7.61064 8.88533 7.4284C8.81021 7.24616 8.69992 7.08052 8.56075 6.94093C8.42159 6.80135 8.25627 6.69056 8.07426 6.6149C7.89225 6.53924 7.69711 6.5002 7.5 6.5Z" fill="#6B7280"/>
<path d="M12.483 22.5613L1.9395 12.0162C1.65836 11.7352 1.50028 11.354 1.5 10.9565V3.5C1.5 3.10218 1.65804 2.72064 1.93934 2.43934C2.22064 2.15804 2.60218 2 3 2H10.4557C10.8535 2.00008 11.235 2.15818 11.5162 2.4395L22.0613 12.983C22.3425 13.2643 22.5004 13.6458 22.5004 14.0435C22.5004 14.4412 22.3425 14.8227 22.0613 15.104L14.604 22.5613C14.3227 22.8425 13.9412 23.0004 13.5435 23.0004C13.1458 23.0004 12.7643 22.8425 12.483 22.5613ZM3 3.5V10.9565L13.5435 21.5L21 14.0435L10.4565 3.5H3Z" fill="#6B7280"/>
</svg>
