<svg width="54" height="54" viewBox="0 0 54 54" fill="none" xmlns="http://www.w3.org/2000/svg">
<path d="M38.8125 6.74121C39.6251 6.74121 40.4297 6.90126 41.1804 7.21221C41.9311 7.52316 42.6132 7.97893 43.1877 8.55349C43.7623 9.12805 44.2181 9.81016 44.529 10.5609C44.84 11.3116 45 12.1162 45 12.9287V25.8707C43.9171 25.42 42.784 25.1012 41.625 24.9212V12.9287C41.625 11.3762 40.365 10.1162 38.8125 10.1162H10.6875C9.135 10.1162 7.875 11.3762 7.875 12.9287V41.0537C7.875 42.6062 9.135 43.8662 10.6875 43.8662H25.452C25.839 45.0677 26.3768 46.1995 27.0427 47.2412H10.6875C9.87495 47.2412 9.07035 47.0812 8.31965 46.7702C7.56894 46.4593 6.88684 46.0035 6.31228 45.4289C5.73771 44.8544 5.28195 44.1723 4.971 43.4216C4.66004 42.6709 4.5 41.8663 4.5 41.0537V12.9287C4.5 11.2877 5.1519 9.71387 6.31228 8.55349C7.47266 7.39311 9.04647 6.74121 10.6875 6.74121H38.8125ZM36 17.3927V25.144C34.8276 25.4218 33.694 25.8435 32.625 26.3995V17.3927C32.6279 17.1741 32.6739 16.9581 32.7603 16.7572C32.8467 16.5563 32.9718 16.3744 33.1285 16.2219C33.2852 16.0694 33.4704 15.9492 33.6736 15.8683C33.8767 15.7874 34.0938 15.7472 34.3125 15.7502C35.1675 15.7502 35.874 16.369 35.9842 17.1677L36 17.3927ZM26.3587 28.6112L26.397 32.6275C25.4901 34.3726 24.9445 36.2826 24.7927 38.2435C24.3983 38.2458 24.0163 38.1061 23.7163 37.85C23.4164 37.5939 23.2187 37.2384 23.1593 36.8485L23.1413 36.6257L23.0625 28.645C23.0601 28.2097 23.2306 27.7913 23.5364 27.4817C23.8423 27.172 24.2585 26.9964 24.6938 26.9935C25.0905 26.9878 25.4758 27.126 25.7786 27.3825C26.0813 27.6389 26.281 27.9962 26.3407 28.3885L26.3587 28.6112ZM15.1875 20.2502C16.0425 20.2502 16.7467 20.8825 16.8593 21.7037L16.875 21.931V36.5717C16.8726 37.0177 16.6938 37.4446 16.3776 37.7591C16.0614 38.0737 15.6335 38.2502 15.1875 38.2502C14.7807 38.2504 14.3876 38.1037 14.0804 37.837C13.7732 37.5704 13.5727 37.2017 13.5157 36.799L13.5 36.5695V21.9287C13.5 21.0017 14.256 20.2502 15.1875 20.2502ZM32.1255 31.4485C32.2934 32.0302 32.3422 32.6398 32.2689 33.2408C32.1956 33.8418 32.0019 34.4219 31.6991 34.9462C31.3964 35.4706 30.991 35.9284 30.5071 36.2924C30.0233 36.6564 29.471 36.919 28.8832 37.0645L27.5693 37.3885C27.3573 38.7365 27.3619 40.1098 27.5828 41.4565L28.7977 41.749C29.3908 41.8918 29.9486 42.1538 30.4373 42.5189C30.926 42.884 31.3354 43.3446 31.6405 43.8728C31.9456 44.4011 32.1402 44.9858 32.2124 45.5915C32.2845 46.1973 32.2328 46.8113 32.0602 47.3965L31.6395 48.8162C32.6295 49.6847 33.7545 50.389 34.9785 50.8907L36.09 49.723C36.5104 49.2808 37.0162 48.9287 37.5769 48.6881C38.1376 48.4476 38.7413 48.3235 39.3514 48.3235C39.9615 48.3235 40.5652 48.4476 41.1258 48.6881C41.6865 48.9287 42.1924 49.2808 42.6127 49.723L43.7332 50.9042C44.9512 50.4081 46.0786 49.714 47.07 48.85L46.6245 47.3065C46.4566 46.7247 46.4078 46.1151 46.4811 45.5141C46.5544 44.9131 46.7481 44.333 47.0509 43.8087C47.3536 43.2843 47.759 42.8265 48.2429 42.4625C48.7267 42.0985 49.279 41.8359 49.8667 41.6905L51.1807 41.3665C51.3927 40.0184 51.3881 38.6451 51.1672 37.2985L49.9523 37.006C49.3592 36.8631 48.8014 36.6012 48.3127 36.2361C47.824 35.871 47.4146 35.4103 47.1095 34.8821C46.8044 34.3539 46.6098 33.7691 46.5376 33.1634C46.4655 32.5577 46.5172 31.9436 46.6898 31.3585L47.1105 29.941C46.1199 29.0695 44.9916 28.3685 43.7715 27.8665L42.6623 29.032C42.2419 29.4745 41.7358 29.8268 41.175 30.0676C40.6141 30.3084 40.0101 30.4326 39.3997 30.4326C38.7894 30.4326 38.1854 30.3084 37.6245 30.0676C37.0637 29.8268 36.5576 29.4745 36.1373 29.032L35.0168 27.8507C33.799 28.3461 32.6715 29.0395 31.68 29.9027L32.1255 31.4485ZM39.375 42.7502C37.575 42.7502 36.1125 41.2382 36.1125 39.3752C36.1125 37.5122 37.575 36.0002 39.375 36.0002C41.175 36.0002 42.6375 37.5122 42.6375 39.3752C42.6375 41.2382 41.175 42.7502 39.375 42.7502Z" fill="#B91C1C"/>
</svg>
