<svg width="40" height="40" viewBox="0 0 40 40" fill="none" xmlns="http://www.w3.org/2000/svg">
<path d="M31.6667 25.0003C31.1944 25.0003 30.7989 24.8403 30.48 24.5203C30.1611 24.2003 30.0011 23.8048 30 23.3337C29.9989 22.8625 30.1589 22.467 30.48 22.147C30.8011 21.827 31.1967 21.667 31.6667 21.667H33.3333C33.8056 21.667 34.2017 21.827 34.5217 22.147C34.8417 22.467 35.0011 22.8625 35 23.3337C34.9989 23.8048 34.8389 24.2009 34.52 24.522C34.2011 24.8431 33.8056 25.0025 33.3333 25.0003H31.6667ZM31.6667 31.667C31.1944 31.667 30.7989 31.507 30.48 31.187C30.1611 30.867 30.0011 30.4714 30 30.0003C29.9989 29.5292 30.1589 29.1337 30.48 28.8137C30.8011 28.4937 31.1967 28.3337 31.6667 28.3337H33.3333C33.8056 28.3337 34.2017 28.4937 34.5217 28.8137C34.8417 29.1337 35.0011 29.5292 35 30.0003C34.9989 30.4714 34.8389 30.8675 34.52 31.1887C34.2011 31.5098 33.8056 31.6692 33.3333 31.667H31.6667ZM23.3333 33.3337C22.4167 33.3337 21.6322 33.0075 20.98 32.3553C20.3278 31.7031 20.0011 30.9181 20 30.0003H18.3333C17.8611 30.0003 17.4656 29.8403 17.1467 29.5203C16.8278 29.2003 16.6678 28.8048 16.6667 28.3337V25.0003C16.6667 24.5281 16.8267 24.1325 17.1467 23.8137C17.4667 23.4948 17.8622 23.3348 18.3333 23.3337H20C20 22.417 20.3267 21.6325 20.98 20.9803C21.6333 20.3281 22.4178 20.0014 23.3333 20.0003H26.6667C27.1389 20.0003 27.535 20.1603 27.855 20.4803C28.175 20.8003 28.3344 21.1959 28.3333 21.667V31.667C28.3333 32.1392 28.1733 32.5353 27.8533 32.8553C27.5333 33.1753 27.1378 33.3348 26.6667 33.3337H23.3333ZM11.6667 28.3337C9.83333 28.3337 8.26389 27.6809 6.95833 26.3753C5.65278 25.0698 5 23.5003 5 21.667C5 19.8337 5.65278 18.2642 6.95833 16.9587C8.26389 15.6531 9.83333 15.0003 11.6667 15.0003H14.1667C14.8611 15.0003 15.4517 14.7575 15.9383 14.272C16.425 13.7864 16.6678 13.1959 16.6667 12.5003C16.6656 11.8048 16.4228 11.2148 15.9383 10.7303C15.4539 10.2459 14.8633 10.0025 14.1667 10.0003H8.33333C7.86111 10.0003 7.46556 9.84033 7.14667 9.52033C6.82778 9.20033 6.66778 8.80477 6.66667 8.33366C6.66556 7.86255 6.82556 7.46699 7.14667 7.14699C7.46778 6.82699 7.86333 6.66699 8.33333 6.66699H14.1667C15.7778 6.66699 17.1528 7.23644 18.2917 8.37533C19.4306 9.51421 20 10.8892 20 12.5003C20 14.1114 19.4306 15.4864 18.2917 16.6253C17.1528 17.7642 15.7778 18.3337 14.1667 18.3337H11.6667C10.75 18.3337 9.96556 18.6603 9.31333 19.3137C8.66111 19.967 8.33444 20.7514 8.33333 21.667C8.33222 22.5825 8.65889 23.3675 9.31333 24.022C9.96778 24.6764 10.7522 25.0025 11.6667 25.0003H13.3333C13.8056 25.0003 14.2017 25.1603 14.5217 25.4803C14.8417 25.8003 15.0011 26.1959 15 26.667C14.9989 27.1381 14.8389 27.5342 14.52 27.8553C14.2011 28.1764 13.8056 28.3359 13.3333 28.3337H11.6667Z" fill="#181719"/>
<path d="M31.6667 25.0003C31.1944 25.0003 30.7989 24.8403 30.48 24.5203C30.1611 24.2003 30.0011 23.8048 30 23.3337C29.9989 22.8625 30.1589 22.467 30.48 22.147C30.8011 21.827 31.1967 21.667 31.6667 21.667H33.3333C33.8056 21.667 34.2017 21.827 34.5217 22.147C34.8417 22.467 35.0011 22.8625 35 23.3337C34.9989 23.8048 34.8389 24.2009 34.52 24.522C34.2011 24.8431 33.8056 25.0025 33.3333 25.0003H31.6667ZM31.6667 31.667C31.1944 31.667 30.7989 31.507 30.48 31.187C30.1611 30.867 30.0011 30.4714 30 30.0003C29.9989 29.5292 30.1589 29.1337 30.48 28.8137C30.8011 28.4937 31.1967 28.3337 31.6667 28.3337H33.3333C33.8056 28.3337 34.2017 28.4937 34.5217 28.8137C34.8417 29.1337 35.0011 29.5292 35 30.0003C34.9989 30.4714 34.8389 30.8675 34.52 31.1887C34.2011 31.5098 33.8056 31.6692 33.3333 31.667H31.6667ZM23.3333 33.3337C22.4167 33.3337 21.6322 33.0075 20.98 32.3553C20.3278 31.7031 20.0011 30.9181 20 30.0003H18.3333C17.8611 30.0003 17.4656 29.8403 17.1467 29.5203C16.8278 29.2003 16.6678 28.8048 16.6667 28.3337V25.0003C16.6667 24.5281 16.8267 24.1325 17.1467 23.8137C17.4667 23.4948 17.8622 23.3348 18.3333 23.3337H20C20 22.417 20.3267 21.6325 20.98 20.9803C21.6333 20.3281 22.4178 20.0014 23.3333 20.0003H26.6667C27.1389 20.0003 27.535 20.1603 27.855 20.4803C28.175 20.8003 28.3344 21.1959 28.3333 21.667V31.667C28.3333 32.1392 28.1733 32.5353 27.8533 32.8553C27.5333 33.1753 27.1378 33.3348 26.6667 33.3337H23.3333ZM11.6667 28.3337C9.83333 28.3337 8.26389 27.6809 6.95833 26.3753C5.65278 25.0698 5 23.5003 5 21.667C5 19.8337 5.65278 18.2642 6.95833 16.9587C8.26389 15.6531 9.83333 15.0003 11.6667 15.0003H14.1667C14.8611 15.0003 15.4517 14.7575 15.9383 14.272C16.425 13.7864 16.6678 13.1959 16.6667 12.5003C16.6656 11.8048 16.4228 11.2148 15.9383 10.7303C15.4539 10.2459 14.8633 10.0025 14.1667 10.0003H8.33333C7.86111 10.0003 7.46556 9.84033 7.14667 9.52033C6.82778 9.20033 6.66778 8.80477 6.66667 8.33366C6.66556 7.86255 6.82556 7.46699 7.14667 7.14699C7.46778 6.82699 7.86333 6.66699 8.33333 6.66699H14.1667C15.7778 6.66699 17.1528 7.23644 18.2917 8.37533C19.4306 9.51421 20 10.8892 20 12.5003C20 14.1114 19.4306 15.4864 18.2917 16.6253C17.1528 17.7642 15.7778 18.3337 14.1667 18.3337H11.6667C10.75 18.3337 9.96556 18.6603 9.31333 19.3137C8.66111 19.967 8.33444 20.7514 8.33333 21.667C8.33222 22.5825 8.65889 23.3675 9.31333 24.022C9.96778 24.6764 10.7522 25.0025 11.6667 25.0003H13.3333C13.8056 25.0003 14.2017 25.1603 14.5217 25.4803C14.8417 25.8003 15.0011 26.1959 15 26.667C14.9989 27.1381 14.8389 27.5342 14.52 27.8553C14.2011 28.1764 13.8056 28.3359 13.3333 28.3337H11.6667Z" fill="#B91C1C"/>
</svg>
