<svg width="40" height="40" viewBox="0 0 40 40" fill="none" xmlns="http://www.w3.org/2000/svg">
<g clip-path="url(#clip0_96_2437)">
<path fill-rule="evenodd" clip-rule="evenodd" d="M4.28572 20.0947C4.28646 17.094 5.14637 14.1562 6.76377 11.6286C8.38117 9.1011 10.6884 7.08949 13.4128 5.83163C16.1372 4.57376 19.1648 4.12224 22.1376 4.53043C25.1105 4.93862 27.9043 6.18947 30.1888 8.13509C32.4733 10.0807 34.153 12.6398 35.0293 15.5097C35.9056 18.3796 35.9419 21.4405 35.1338 24.3304C34.3257 27.2203 32.7071 29.8184 30.4693 31.8176C28.2315 33.8167 25.4681 35.1334 22.5057 35.6119C22.4753 35.6158 22.4444 35.6149 22.4143 35.609C22.378 35.5949 22.3449 35.5735 22.3171 35.5462C22.2597 35.4862 22.2147 35.4154 22.1848 35.3379C22.1549 35.2604 22.1406 35.1778 22.1429 35.0947V30.9462C24.4682 30.4537 26.5539 29.1775 28.0508 27.3312C29.5477 25.4848 30.3649 23.1802 30.3657 20.8033V16.3719C30.3657 15.8035 30.14 15.2585 29.7381 14.8566C29.3362 14.4548 28.7912 14.229 28.2229 14.229H26.6057V10.7719C26.6057 10.2036 26.38 9.65851 25.9781 9.25664C25.5762 8.85478 25.0312 8.62901 24.4629 8.62901C23.8945 8.62901 23.3495 8.85478 22.9476 9.25664C22.5458 9.65851 22.32 10.2036 22.32 10.7719V14.229H17.68V10.7719C17.68 10.2036 17.4542 9.65851 17.0524 9.25664C16.6505 8.85478 16.1055 8.62901 15.5371 8.62901C14.9688 8.62901 14.4238 8.85478 14.0219 9.25664C13.6201 9.65851 13.3943 10.2036 13.3943 10.7719V14.229H11.7829C11.2145 14.229 10.6695 14.4548 10.2676 14.8566C9.86577 15.2585 9.64 15.8035 9.64 16.3719V20.8004C9.64068 23.177 10.4575 25.4812 11.9538 27.3275C13.4501 29.1739 15.5352 30.4503 17.86 30.9433V35.0947C17.86 37.7433 20.0943 40.3347 23.1886 39.8404C28.1404 39.0254 32.605 36.379 35.697 32.4262C38.7889 28.4734 40.2823 23.5029 39.881 18.5005C39.4797 13.4982 37.213 8.82934 33.5304 5.42002C29.8478 2.0107 25.0184 0.10994 20 0.0947286C15.5957 0.0927408 11.3138 1.54465 7.81905 4.22513C4.32429 6.9056 1.81206 10.6647 0.672277 14.919C-0.467504 19.1733 -0.171091 23.6849 1.51551 27.7535C3.20211 31.8222 6.18458 35.2203 10 37.4204C10.2438 37.5634 10.5135 37.6567 10.7934 37.6949C11.0734 37.7332 11.3582 37.7157 11.6315 37.6435C11.9047 37.5713 12.1609 37.4457 12.3854 37.2741C12.6099 37.1024 12.7982 36.888 12.9395 36.6433C13.0808 36.3986 13.1723 36.1283 13.2087 35.848C13.2451 35.5678 13.2258 35.2831 13.1517 35.0104C13.0777 34.7377 12.9504 34.4823 12.7773 34.2589C12.6041 34.0356 12.3885 33.8487 12.1429 33.709C9.75321 32.3293 7.76896 30.3448 6.3897 27.9549C5.01044 25.565 4.28478 22.8541 4.28572 20.0947Z" fill="#B91C1C"/>
</g>
<defs>
<clipPath id="clip0_96_2437">
<rect width="40" height="40" fill="white"/>
</clipPath>
</defs>
</svg>
