<svg width="36" height="36" viewBox="0 0 36 36" fill="none" xmlns="http://www.w3.org/2000/svg">
<circle cx="18" cy="18" r="18" fill="#0E2D65"/>
<g clip-path="url(#clip0_134_3004)">
<path d="M27.7158 26.5716H9.14432C7.95861 26.5716 7.00146 25.6144 7.00146 24.4287V11.5716C7.00146 10.3859 7.95861 9.42871 9.14432 9.42871H27.7158C28.9015 9.42871 29.8586 10.3859 29.8586 11.5716V24.4287C29.8586 25.6144 28.9015 26.5716 27.7158 26.5716ZM9.14432 10.8573C8.74432 10.8573 8.43004 11.1716 8.43004 11.5716V24.4287C8.43004 24.8287 8.74432 25.143 9.14432 25.143H27.7158C28.1158 25.143 28.43 24.8287 28.43 24.4287V11.5716C28.43 11.1716 28.1158 10.8573 27.7158 10.8573H9.14432Z" fill="white"/>
<path d="M18.43 20.8004C17.43 20.8004 16.5157 20.4004 15.83 19.6719L8.32996 11.7004C8.05853 11.4147 8.07282 10.9576 8.35853 10.6862C8.64425 10.4147 9.10139 10.429 9.37282 10.7147L16.8728 18.6862C17.6871 19.5576 19.1728 19.5576 19.9871 18.6862L27.4871 10.729C27.7585 10.4433 28.2157 10.429 28.5014 10.7004C28.7871 10.9719 28.8014 11.429 28.53 11.7147L21.03 19.6862C20.3442 20.4147 19.43 20.8147 18.43 20.8147V20.8004Z" fill="white"/>
</g>
<defs>
<clipPath id="clip0_134_3004">
<rect width="22.86" height="20" fill="white" transform="translate(7 8)"/>
</clipPath>
</defs>
</svg>
