<svg width="54" height="54" viewBox="0 0 54 54" fill="none" xmlns="http://www.w3.org/2000/svg">
<path d="M20.25 33.75C14.2425 33.75 2.25 36.765 2.25 42.75V47.25H38.25V42.75C38.25 36.765 26.2575 33.75 20.25 33.75ZM6.75 42.75C7.245 41.13 14.1975 38.25 20.25 38.25C26.325 38.25 33.3 41.1525 33.75 42.75H6.75ZM10.665 20.25H11.25C11.25 25.2225 15.2775 29.25 20.25 29.25C25.2225 29.25 29.25 25.2225 29.25 20.25H29.835C30.4425 20.25 30.9375 19.755 30.9375 19.1475V19.1025C30.9375 18.8101 30.8213 18.5297 30.6146 18.3229C30.4078 18.1162 30.1274 18 29.835 18H29.25C29.25 14.67 27.4275 11.8125 24.75 10.2375V12.375C24.75 13.005 24.255 13.5 23.625 13.5C22.995 13.5 22.5 13.005 22.5 12.375V9.315C21.78 9.135 21.0375 9 20.25 9C19.4625 9 18.72 9.135 18 9.315V12.375C18 13.005 17.505 13.5 16.875 13.5C16.245 13.5 15.75 13.005 15.75 12.375V10.2375C13.0725 11.8125 11.25 14.67 11.25 18H10.665C10.5202 18 10.3769 18.0285 10.2431 18.0839C10.1093 18.1393 9.98779 18.2205 9.88541 18.3229C9.78304 18.4253 9.70183 18.5468 9.64642 18.6806C9.59102 18.8144 9.5625 18.9577 9.5625 19.1025V19.17C9.5625 19.755 10.0575 20.25 10.665 20.25ZM24.75 20.25C24.75 22.725 22.725 24.75 20.25 24.75C17.775 24.75 15.75 22.725 15.75 20.25H24.75ZM49.455 14.0175L51.5475 12.15L49.86 9.225L47.1825 10.1025C46.8675 9.855 46.5075 9.6525 46.125 9.495L45.5625 6.75H42.1875L41.625 9.495C41.2425 9.6525 40.8825 9.855 40.545 10.1025L37.89 9.225L36.2025 12.15L38.295 14.0175C38.25 14.4 38.25 14.805 38.295 15.1875L36.2025 17.1L37.89 20.025L40.59 19.17C40.8825 19.395 41.22 19.575 41.5575 19.7325L42.1875 22.5H45.5625L46.17 19.755C46.53 19.5975 46.845 19.4175 47.16 19.1925L49.8375 20.0475L51.525 17.1225L49.4325 15.21C49.5 14.7825 49.4775 14.4 49.455 14.0175ZM43.875 17.4375C43.1291 17.4375 42.4137 17.1412 41.8863 16.6137C41.3588 16.0863 41.0625 15.3709 41.0625 14.625C41.0625 13.8791 41.3588 13.1637 41.8863 12.6363C42.4137 12.1088 43.1291 11.8125 43.875 11.8125C44.6209 11.8125 45.3363 12.1088 45.8637 12.6363C46.3912 13.1637 46.6875 13.8791 46.6875 14.625C46.6875 15.3709 46.3912 16.0863 45.8637 16.6137C45.3363 17.1412 44.6209 17.4375 43.875 17.4375ZM43.65 24.2775L41.7375 24.9075C41.5125 24.7275 41.265 24.5925 40.995 24.48L40.59 22.5H38.1825L37.7775 24.4575C37.5075 24.57 37.2375 24.7275 37.0125 24.885L35.1225 24.255L33.9075 26.3475L35.3925 27.675C35.37 27.9675 35.37 28.2375 35.3925 28.5075L33.9075 29.88L35.1225 31.9725L37.0575 31.365C37.2825 31.5225 37.5075 31.6575 37.755 31.77L38.16 33.75H40.5675L40.995 31.7925C41.2425 31.68 41.49 31.545 41.715 31.3875L43.6275 31.995L44.8425 29.9025L43.3575 28.53C43.38 28.2375 43.38 27.9675 43.3575 27.6975L44.8425 26.37L43.65 24.2775ZM39.375 30.1275C38.2725 30.1275 37.3725 29.2275 37.3725 28.125C37.3725 27.0225 38.2725 26.1225 39.375 26.1225C40.4775 26.1225 41.3775 27.0225 41.3775 28.125C41.3775 29.2275 40.4775 30.1275 39.375 30.1275Z" fill="#B91C1C"/>
<path d="M4.31104 45.4326V41.7291C4.31104 40.7511 4.57204 39.8773 5.09403 39.1078C5.61603 38.3383 6.35254 37.7151 7.30354 37.2381C9.12904 36.3216 11.1555 35.5828 13.383 35.0218C15.6105 34.4623 17.8365 34.1826 20.061 34.1826C22.2855 34.1826 24.5108 34.4623 26.7368 35.0218C28.9628 35.5813 30.9893 36.3201 32.8163 37.2381C33.7673 37.7136 34.5038 38.3361 35.0258 39.1056C35.5493 39.8766 35.811 40.7511 35.811 41.7291V45.4326H4.31104ZM6.56103 43.1826H33.561V41.7291C33.561 41.1141 33.3855 40.6093 33.0345 40.2148C32.6835 39.8203 32.253 39.4858 31.743 39.2113C30.3345 38.4793 28.5713 37.8336 26.4533 37.2741C24.3338 36.7131 22.2023 36.4326 20.0588 36.4326C17.9153 36.4326 15.7845 36.7131 13.6665 37.2741C11.5485 37.8351 9.78529 38.4808 8.37679 39.2113C7.86679 39.4858 7.43628 39.8203 7.08528 40.2148C6.73428 40.6108 6.55879 41.1156 6.55879 41.7291L6.56103 43.1826ZM20.061 29.1651C18.1335 29.1651 16.5263 28.5216 15.2393 27.2346C13.9523 25.9476 13.3095 24.2541 13.311 22.1541H12.834C12.582 22.1541 12.375 22.0731 12.213 21.9111C12.0495 21.7461 11.9678 21.5391 11.9678 21.2901C11.9678 21.0411 12.0495 20.8341 12.213 20.6691C12.3765 20.5041 12.5835 20.4223 12.834 20.4238H13.3088C13.3673 19.2838 13.6073 18.2488 14.0288 17.3188C14.4488 16.3858 15.132 15.4971 16.0785 14.6526V16.7901C16.0785 17.0406 16.1603 17.2476 16.3238 17.4111C16.4873 17.5731 16.6943 17.6541 16.9448 17.6541C17.1953 17.6541 17.4023 17.5731 17.5658 17.4111C17.7293 17.2491 17.8103 17.0421 17.8088 16.7901V13.8381C18.1178 13.7256 18.4673 13.6266 18.8573 13.5411C19.2473 13.4571 19.6485 13.4151 20.061 13.4151C20.4735 13.4151 20.874 13.4571 21.2625 13.5411C21.651 13.6251 22.0005 13.7241 22.311 13.8381V16.7901C22.311 17.0406 22.392 17.2476 22.554 17.4111C22.7175 17.5731 22.9245 17.6541 23.175 17.6541C23.4255 17.6541 23.6325 17.5731 23.796 17.4111C23.9595 17.2491 24.0413 17.0421 24.0413 16.7901V14.6526C25.0163 15.4971 25.7063 16.3851 26.1113 17.3166C26.5193 18.2481 26.7518 19.2838 26.8088 20.4238H27.2858C27.5363 20.4238 27.7433 20.5056 27.9068 20.6691C28.0688 20.8311 28.1498 21.0381 28.1498 21.2901C28.1498 21.5421 28.0688 21.7491 27.9068 21.9111C27.7448 22.0731 27.5378 22.1541 27.2858 22.1541H26.8088C26.8088 24.2541 26.166 25.9476 24.8805 27.2346C23.5935 28.5216 21.9863 29.1651 20.0588 29.1651M20.0588 26.9151C21.3548 26.9151 22.4288 26.4883 23.2808 25.6348C24.1328 24.7828 24.5588 23.7088 24.5588 22.4128H15.5588C15.5588 23.7088 15.9855 24.7828 16.839 25.6348C17.6925 26.4868 18.7658 26.9136 20.0588 26.9151ZM37.0215 33.4041L36.8573 31.8043C36.5738 31.7293 36.2783 31.6086 35.9708 31.4421C35.6633 31.2756 35.4015 31.0843 35.1855 30.8683L33.6983 31.5186L32.832 30.0111L34.1573 29.0616C34.0988 28.8906 34.0695 28.7346 34.0695 28.5936V27.6801C34.0695 27.5526 34.0988 27.3898 34.1573 27.1918L32.832 26.2401L33.6983 24.7326L35.1855 25.3828C35.394 25.1743 35.6535 24.9853 35.964 24.8158C36.276 24.6463 36.5738 24.5241 36.8573 24.4491L37.0215 22.8471H38.7518L38.916 24.4491C39.1995 24.5241 39.4965 24.6463 39.807 24.8158C40.1175 24.9853 40.3778 25.1743 40.5878 25.3828L42.075 24.7326L42.9413 26.2401L41.616 27.1896C41.6745 27.3891 41.7038 27.5526 41.7038 27.6801V28.5936C41.7038 28.7346 41.6745 28.8898 41.616 29.0593L42.9413 30.0133L42.075 31.5186L40.5855 30.8683C40.3695 31.0843 40.1078 31.2756 39.8003 31.4421C39.4928 31.6071 39.198 31.7271 38.916 31.8021L38.7518 33.4041H37.0215ZM37.8855 30.1596C38.451 30.1596 38.931 29.9623 39.3255 29.5678C39.7215 29.1718 39.9195 28.6911 39.9195 28.1256C39.9195 27.5601 39.7223 27.0801 39.3278 26.6856C38.9333 26.2911 38.4533 26.0931 37.8878 26.0916C37.3223 26.0901 36.8415 26.2881 36.4455 26.6856C36.0495 27.0831 35.8515 27.5631 35.8515 28.1256C35.8515 28.6881 36.0495 29.1681 36.4455 29.5656C36.8415 29.9631 37.3215 30.1611 37.8855 30.1596ZM42.4553 21.2023L42.264 19.4473C41.841 19.3633 41.3948 19.1931 40.9253 18.9366C40.4573 18.6816 40.0823 18.3696 39.8003 18.0006L38.1285 18.7026L37.161 17.0398L38.6393 15.9598C38.5643 15.7423 38.5118 15.5196 38.4818 15.2916C38.4533 15.0636 38.439 14.8416 38.439 14.6256C38.439 14.4096 38.454 14.1876 38.484 13.9596C38.514 13.7316 38.5658 13.5096 38.6393 13.2936L37.1588 12.2113L38.1285 10.5508L39.798 11.2506C40.0815 10.8816 40.458 10.5696 40.9275 10.3146C41.3955 10.0596 41.8418 9.89008 42.2663 9.80608L42.4553 8.04883H44.3948L44.5838 9.80383C45.0083 9.88933 45.4545 10.0596 45.9225 10.3146C46.392 10.5696 46.7678 10.8816 47.0498 11.2506L48.7215 10.5486L49.689 12.2113L48.2108 13.2913C48.2858 13.5088 48.3383 13.7316 48.3683 13.9596C48.3953 14.1876 48.4088 14.4096 48.4088 14.6256C48.4088 14.8416 48.3945 15.0636 48.366 15.2916C48.3375 15.5196 48.2858 15.7416 48.2108 15.9576L49.6913 17.0398L48.7215 18.7026L47.052 18.0006C46.7685 18.3696 46.3928 18.6816 45.9248 18.9366C45.4553 19.1916 45.009 19.3611 44.586 19.4451L44.3948 21.2023H42.4553ZM43.425 17.6991C44.2995 17.6991 45.03 17.4051 45.6165 16.8171C46.203 16.2306 46.4963 15.5001 46.4963 14.6256C46.4963 13.7511 46.203 13.0206 45.6165 12.4341C45.03 11.8476 44.2995 11.5543 43.425 11.5543C42.5505 11.5543 41.82 11.8476 41.2335 12.4341C40.647 13.0206 40.353 13.7511 40.3515 14.6256C40.35 15.5001 40.644 16.2306 41.2335 16.8171C41.823 17.4036 42.5535 17.6976 43.425 17.6991Z" fill="#B91C1C"/>
</svg>
