<svg width="54" height="54" viewBox="0 0 54 54" fill="none" xmlns="http://www.w3.org/2000/svg">
<path fill-rule="evenodd" clip-rule="evenodd" d="M23.6903 8.46C20.655 9.567 18.2745 12.1556 17.3239 15.4058C15.6353 16.272 14.625 17.37 14.625 18.5625C14.625 19.9102 15.912 21.1354 18.0113 22.0421C18.0037 22.1936 18 22.3462 18 22.5C18.0011 23.7005 18.2423 24.8886 18.7095 25.9945C19.1767 27.1003 19.8604 28.1015 20.7204 28.9392C21.5804 29.7768 22.5993 30.4339 23.717 30.8718C24.8348 31.3097 26.0289 31.5195 27.229 31.489C28.4291 31.4585 29.611 31.1881 30.705 30.6939C31.7991 30.1997 32.7832 29.4916 33.5994 28.6113C34.4157 27.7311 35.0476 26.6964 35.4579 25.5682C35.8683 24.44 36.0487 23.2411 35.9888 22.0421C38.088 21.1354 39.375 19.9102 39.375 18.5625C39.375 17.3689 38.3647 16.272 36.675 15.4058C35.7255 12.1545 33.345 9.567 30.3097 8.45888C30.1888 7.9709 29.908 7.53748 29.512 7.22775C29.116 6.91802 28.6277 6.74982 28.125 6.75H25.875C25.3721 6.74989 24.8837 6.91824 24.4877 7.22819C24.0917 7.53814 23.8109 7.97182 23.6903 8.46ZM24.75 13.5C25.0484 13.5 25.3345 13.3815 25.5455 13.1705C25.7565 12.9595 25.875 12.6734 25.875 12.375V9H28.125V12.375C28.125 12.6734 28.2435 12.9595 28.4545 13.1705C28.6655 13.3815 28.9516 13.5 29.25 13.5C29.5484 13.5 29.8345 13.3815 30.0455 13.1705C30.2565 12.9595 30.375 12.6734 30.375 12.375V10.9373C32.1604 11.8485 33.6015 13.4719 34.3406 15.5002L34.3316 15.5396C34.2755 15.5837 34.2165 15.6239 34.155 15.66C33.8333 15.8512 33.3022 16.0605 32.5665 16.2517C31.1119 16.6309 29.1004 16.875 27 16.875C24.8996 16.875 22.8881 16.6309 21.4335 16.2517C20.6978 16.0605 20.1667 15.8512 19.845 15.66C19.7835 15.6239 19.7245 15.5837 19.6684 15.5396L19.6661 15.5295L19.6594 15.5002C20.3985 13.4719 21.8396 11.8474 23.625 10.9373V12.375C23.625 12.6734 23.7435 12.9595 23.9545 13.1705C24.1655 13.3815 24.4516 13.5 24.75 13.5ZM18.387 17.3903L18.3499 17.4082C17.667 17.7581 17.2541 18.0911 17.037 18.3398C16.9743 18.4057 16.9219 18.4808 16.8817 18.5625C16.9054 18.6165 16.974 18.7335 17.1619 18.9157C17.514 19.2566 18.1418 19.6672 19.1014 20.0599C21.0094 20.8406 23.8016 21.375 27 21.375C30.1984 21.375 32.9906 20.8406 34.8975 20.0588C35.8582 19.6672 36.486 19.2566 36.8381 18.9157C37.026 18.7335 37.0946 18.6165 37.1182 18.5625C37.0781 18.4808 37.0257 18.4057 36.963 18.3398C36.7459 18.0911 36.333 17.7581 35.6501 17.4082L35.613 17.3903C35.5147 17.4632 35.4126 17.5308 35.307 17.5927C34.7254 17.9392 33.9626 18.2137 33.1324 18.4298C31.4561 18.8663 29.25 19.125 27 19.125C24.75 19.125 22.5439 18.8663 20.8676 18.4298C20.0374 18.2137 19.2746 17.9392 18.693 17.5916C18.5874 17.5297 18.4853 17.4621 18.387 17.3891M37.1295 18.5276C37.128 18.5276 37.1269 18.5314 37.1261 18.5389L37.1284 18.5299L37.1295 18.5276ZM16.8728 18.5344L16.8716 18.5276L16.8739 18.5389L16.8728 18.5344ZM16.8728 18.5884V18.5827V18.5861L16.8716 18.5929L16.8728 18.5884ZM33.7432 22.8071C31.8037 23.3258 29.4862 23.625 27 23.625C24.5138 23.625 22.1963 23.3246 20.2568 22.8083C20.3345 24.5445 21.0789 26.1838 22.3349 27.385C23.591 28.5861 25.262 29.2565 27 29.2565C28.738 29.2565 30.409 28.5861 31.6651 27.385C32.9211 26.1838 33.6655 24.5434 33.7432 22.8071ZM39.0206 29.9182C39.0837 29.72 39.0905 29.5081 39.0403 29.3061C38.9901 29.1042 38.8849 28.9202 38.7364 28.7744C38.5879 28.6287 38.4018 28.527 38.199 28.4807C37.9962 28.4344 37.7844 28.4452 37.5874 28.512C36.2833 28.9554 35.131 29.7579 34.2629 30.8273C33.3948 31.8966 32.8463 33.1893 32.6804 34.5567C32.5146 35.924 32.7382 37.3104 33.3254 38.5562C33.9127 39.8021 34.8398 40.8569 36 41.5991V46.125C36 46.4234 36.1185 46.7095 36.3295 46.9205C36.5405 47.1315 36.8266 47.25 37.125 47.25H42.75C43.0484 47.25 43.3345 47.1315 43.5455 46.9205C43.7565 46.7095 43.875 46.4234 43.875 46.125V41.6003C45.0359 40.8582 45.9636 39.8033 46.5513 38.5572C47.139 37.311 47.3628 35.9242 47.1969 34.5565C47.031 33.1887 46.4822 31.8956 45.6137 30.826C44.7452 29.7565 43.5922 28.9539 42.2876 28.5109C42.0905 28.444 41.8786 28.4331 41.6756 28.4795C41.4726 28.5258 41.2865 28.6276 41.1379 28.7735C40.9893 28.9194 40.8842 29.1036 40.8341 29.3057C40.7841 29.5079 40.7911 29.7199 40.8544 29.9182L40.8791 30.0105L41.5058 32.9355C41.5553 33.1691 41.552 33.4107 41.4962 33.6429C41.4404 33.875 41.3334 34.0917 41.1831 34.2772C41.0328 34.4627 40.843 34.6123 40.6275 34.7151C40.412 34.8179 40.1763 34.8712 39.9375 34.8712C39.6987 34.8712 39.463 34.8179 39.2475 34.7151C39.032 34.6123 38.8422 34.4627 38.6919 34.2772C38.5416 34.0917 38.4346 33.875 38.3788 33.6429C38.323 33.4107 38.3197 33.1691 38.3692 32.9355L38.9959 30.0105L39.0206 29.9182ZM43.7051 32.4641L43.5926 31.9331C44.1396 32.5033 44.5455 33.1936 44.7779 33.9487C45.0103 34.7038 45.0627 35.5029 44.9309 36.2819C44.7992 37.0609 44.4869 37.7983 44.0191 38.435C43.5513 39.0718 42.941 39.5902 42.237 39.9487C42.0455 40.0464 41.8861 40.1968 41.7774 40.3822C41.6687 40.5676 41.6155 40.7803 41.6239 40.995L41.625 41.0625V45H38.25V41.0535L38.2511 40.995C38.2596 40.7804 38.2065 40.5678 38.0981 40.3824C37.9896 40.197 37.8304 40.0465 37.6391 39.9487C36.9351 39.5902 36.3248 39.0718 35.857 38.435C35.3892 37.7983 35.077 37.0609 34.9452 36.2819C34.8135 35.5029 34.8659 34.7038 35.0983 33.9487C35.3306 33.1936 35.7365 32.5033 36.2835 31.9331L36.1699 32.4641C36.0495 33.0259 36.0563 33.6075 36.1898 34.1663C36.3232 34.7251 36.5799 35.247 36.9411 35.6938C37.3023 36.1405 37.7588 36.5009 38.2773 36.7484C38.7957 36.996 39.363 37.1245 39.9375 37.1245C40.512 37.1245 41.0793 36.996 41.5977 36.7484C42.1162 36.5009 42.5727 36.1405 42.9339 35.6938C43.2951 35.247 43.5518 34.7251 43.6852 34.1663C43.8187 33.6075 43.8255 33.0259 43.7051 32.4641ZM20.6471 32.184L25.875 36.2498V40.3841C26.1056 40.4426 26.4656 40.5 27 40.5C27.5344 40.5 27.8944 40.4437 28.125 40.3841V36L30.375 34.3125V47.25H6.75V40.5C6.75 36.3814 14.085 33.4429 20.6471 32.184ZM16.2844 40.8015L23.625 39.5786V45H14.625V36.2025C15.8575 35.7303 17.1157 35.3284 18.3938 34.9988L16.2844 40.8015ZM9 45H12.375V37.2139L12.2917 37.2577C11.0947 37.8923 10.2195 38.5391 9.66825 39.1478C9.12825 39.7463 9 40.1884 9 40.5V45ZM27 42.75C26.5755 42.7485 26.2005 42.7234 25.875 42.6746V45H28.125V42.6746C27.7995 42.7234 27.4245 42.7485 27 42.75ZM23.5688 37.3061L20.7472 35.1124L19.7156 37.9485L23.5688 37.3061Z" fill="#B91C1C"/>
</svg>
