<svg width="45" height="40" viewBox="0 0 45 40" fill="none" xmlns="http://www.w3.org/2000/svg">
<path d="M20 2.5C18.6172 2.5 17.5 3.61719 17.5 5V12.9609C17.5 13.3984 17.1484 13.75 16.7109 13.75C16.4297 13.75 16.1641 13.6016 16.0234 13.3516L12.2734 6.79688C6.48438 9.64844 2.5 15.6094 2.5 22.5V27.5H42.5V22.3125C42.4297 15.5 38.4609 9.625 32.7266 6.79688L28.9766 13.3516C28.8359 13.6016 28.5703 13.75 28.2891 13.75C27.8516 13.75 27.5 13.3984 27.5 12.9609V5C27.5 3.61719 26.3828 2.5 25 2.5H20ZM1.29688 30C0.578125 30 0 30.5781 0 31.2969C0 31.6641 0.15625 32.0156 0.453125 32.2266C2.14844 33.4688 8.73438 37.5 22.5 37.5C36.2656 37.5 42.8516 33.4688 44.5469 32.2266C44.8438 32.0078 45 31.6641 45 31.2969C45 30.5781 44.4219 30 43.7031 30H1.29688Z" fill="#B91C1C"/>
</svg>
