<svg width="36" height="36" viewBox="0 0 36 36" fill="none" xmlns="http://www.w3.org/2000/svg">
<circle cx="18" cy="18" r="18" fill="#0E2D65"/>
<path d="M22.0001 20.5H20.3334V22.1667H22.0001M22.0001 17.1667H20.3334V18.8333H22.0001M23.6667 23.8333H17.0001V22.1667H18.6667V20.5H17.0001V18.8333H18.6667V17.1667H17.0001V15.5H23.6667M15.3334 13.8333H13.6667V12.1667H15.3334M15.3334 17.1667H13.6667V15.5H15.3334M15.3334 20.5H13.6667V18.8333H15.3334M15.3334 23.8333H13.6667V22.1667H15.3334M12.0001 13.8333H10.3334V12.1667H12.0001M12.0001 17.1667H10.3334V15.5H12.0001M12.0001 20.5H10.3334V18.8333H12.0001M12.0001 23.8333H10.3334V22.1667H12.0001M17.0001 13.8333V10.5H8.66675V25.5H25.3334V13.8333H17.0001Z" fill="white"/>
</svg>
