<svg width="41" height="40" viewBox="0 0 41 40" fill="none" xmlns="http://www.w3.org/2000/svg">
<path fill-rule="evenodd" clip-rule="evenodd" d="M20.4999 5C20.7209 5 20.9329 5.0878 21.0892 5.24408C21.2455 5.40036 21.3333 5.61232 21.3333 5.83333V5.89C23.6649 6.13333 25.4441 7.13583 26.6024 8.41167C27.3991 9.28917 27.9266 10.335 28.0924 11.355L28.1824 11.4242C29.1191 12.15 29.8066 13.03 29.6433 14.0392C29.4858 15.0142 28.6049 15.6075 27.7849 15.97C27.5777 16.0618 27.3663 16.1441 27.1516 16.2167C27.1616 16.365 27.1666 16.515 27.1666 16.6667C27.1662 17.5608 26.9859 18.4458 26.6365 19.2689C26.287 20.0919 25.7756 20.8363 25.1326 21.4577C24.4896 22.079 23.7282 22.5647 22.8936 22.8857C22.0591 23.2068 21.1685 23.3567 20.2748 23.3265C19.3811 23.2963 18.5027 23.0866 17.6917 22.71C16.8807 22.3333 16.1538 21.7974 15.5542 21.134C14.9546 20.4707 14.4946 19.6935 14.2015 18.8487C13.9085 18.0039 13.7883 17.1088 13.8483 16.2167C13.6335 16.1441 13.4222 16.0618 13.2149 15.97C12.3949 15.6075 11.5141 15.0142 11.3566 14.0392C11.1933 13.03 11.8808 12.15 12.8174 11.4242L12.9233 11.3425C12.9446 11.2098 12.9713 11.078 13.0033 10.9475C13.223 10.0809 13.6237 9.27062 14.1791 8.57C15.2958 7.14667 17.1233 5.99667 19.6666 5.85V5.83333C19.6666 5.61232 19.7544 5.40036 19.9107 5.24408C20.067 5.0878 20.2789 5 20.4999 5ZM26.8833 13.7C27.0538 13.7617 27.2398 13.7662 27.413 13.7126C27.5863 13.6591 27.7373 13.5505 27.8433 13.4033C28.0074 13.6325 28.0016 13.7542 27.9983 13.7733C27.9874 13.84 27.8599 14.115 27.1108 14.4467C26.2366 14.8333 24.9216 15.1133 23.4133 15.2717C23.3774 14.5231 23.0549 13.8171 22.5124 13.3C21.97 12.7829 21.2493 12.4944 20.4999 12.4944C19.7505 12.4944 19.0299 12.7829 18.4874 13.3C17.945 13.8171 17.6224 14.5231 17.5866 15.2717C16.0783 15.1133 14.7633 14.8333 13.8891 14.4467C13.1399 14.115 13.0124 13.84 13.0016 13.7733C12.9983 13.7542 12.9924 13.6333 13.1566 13.4033C13.2742 13.5673 13.4474 13.683 13.6439 13.729C13.8404 13.775 14.0469 13.7481 14.2251 13.6533C14.4033 13.5585 14.541 13.4023 14.6127 13.2136C14.6844 13.025 14.6852 12.8167 14.6149 12.6275C14.5149 12.3575 14.4841 11.91 14.6224 11.3417C14.7862 10.7062 15.082 10.1125 15.4908 9.59917L15.4999 9.5875V11.25C15.4999 11.471 15.5877 11.683 15.744 11.8393C15.9003 11.9955 16.1122 12.0833 16.3333 12.0833C16.5543 12.0833 16.7662 11.9955 16.9225 11.8393C17.0788 11.683 17.1666 11.471 17.1666 11.25V8.205C17.8516 7.8425 18.6808 7.58917 19.6666 7.51917V9.58333C19.6666 9.80435 19.7544 10.0163 19.9107 10.1726C20.067 10.3289 20.2789 10.4167 20.4999 10.4167C20.7209 10.4167 20.9329 10.3289 21.0892 10.1726C21.2455 10.0163 21.3333 9.80435 21.3333 9.58333V7.5675C22.3083 7.69 23.1399 7.96917 23.8333 8.3425V11.25C23.8333 11.471 23.9211 11.683 24.0773 11.8393C24.2336 11.9955 24.4456 12.0833 24.6666 12.0833C24.8876 12.0833 25.0996 11.9955 25.2559 11.8393C25.4121 11.683 25.4999 11.471 25.4999 11.25V9.6825C26.4299 10.7883 26.6266 11.9583 26.3833 12.6333C26.3082 12.8411 26.3187 13.0701 26.4125 13.2702C26.5062 13.4702 26.6756 13.6248 26.8833 13.7ZM18.3891 17.4292C17.4247 17.3679 16.4651 17.2469 15.5158 17.0667C15.6157 18.3199 16.1842 19.4896 17.1079 20.3425C18.0316 21.1954 19.2427 21.6691 20.4999 21.6691C21.7572 21.6691 22.9683 21.1954 23.892 20.3425C24.8157 19.4896 25.3841 18.3199 25.4841 17.0667C24.6008 17.24 23.6224 17.36 22.6108 17.4292C22.3384 17.7149 22.0109 17.9423 21.6481 18.0977C21.2852 18.2531 20.8946 18.3333 20.4999 18.3333C20.1052 18.3333 19.7146 18.2531 19.3518 18.0977C18.989 17.9423 18.6614 17.7149 18.3891 17.4292ZM21.7499 15.4167C21.7499 15.7482 21.6182 16.0661 21.3838 16.3005C21.1494 16.535 20.8314 16.6667 20.4999 16.6667C20.1684 16.6667 19.8505 16.535 19.616 16.3005C19.3816 16.0661 19.2499 15.7482 19.2499 15.4167C19.2499 15.0851 19.3816 14.7672 19.616 14.5328C19.8505 14.2984 20.1684 14.1667 20.4999 14.1667C20.8314 14.1667 21.1494 14.2984 21.3838 14.5328C21.6182 14.7672 21.7499 15.0851 21.7499 15.4167Z" fill="#B91C1C"/>
<path d="M20.5002 32.4993C20.9422 32.4993 21.3661 32.3238 21.6787 32.0112C21.9912 31.6986 22.1668 31.2747 22.1668 30.8327C22.1668 30.3907 21.9912 29.9667 21.6787 29.6542C21.3661 29.3416 20.9422 29.166 20.5002 29.166C20.0581 29.166 19.6342 29.3416 19.3217 29.6542C19.0091 29.9667 18.8335 30.3907 18.8335 30.8327C18.8335 31.2747 19.0091 31.6986 19.3217 32.0112C19.6342 32.3238 20.0581 32.4993 20.5002 32.4993Z" fill="#B91C1C"/>
<path fill-rule="evenodd" clip-rule="evenodd" d="M16.7783 23.666L19.6667 25.8327H21.3333L24.2217 23.666C29.3008 24.4793 35.5 26.741 35.5 29.9993V34.9993H5.5V29.9993C5.5 26.741 11.6992 24.4793 16.7783 23.666ZM21.8892 27.4993L24.6475 25.4302C25.4833 25.5835 26.3342 25.776 27.1667 26.0018V33.3327H28.8333V26.5118C29.4167 26.7118 29.9758 26.9293 30.5 27.1635V33.3327H10.5V27.1635C11.0242 26.9302 11.5833 26.7118 12.1667 26.5118V33.3327H13.8333V26.0018C14.6658 25.776 15.5167 25.5835 16.3525 25.4302L19.1108 27.4993H21.8892ZM33.2542 28.9077C33.7242 29.3943 33.8333 29.7535 33.8333 29.9993V33.3327H32.1667V28.046C32.6167 28.3343 32.98 28.6244 33.2542 28.9085M7.74583 28.9085C8.02083 28.6252 8.38417 28.3352 8.83333 28.0469V33.3327H7.16667V29.9993C7.16667 29.7535 7.275 29.3943 7.74583 28.9077" fill="#B91C1C"/>
</svg>
