<svg width="55" height="54" viewBox="0 0 55 54" fill="none" xmlns="http://www.w3.org/2000/svg">
<path fill-rule="evenodd" clip-rule="evenodd" d="M27.5 6.75C27.7984 6.75 28.0845 6.86853 28.2955 7.07951C28.5065 7.29048 28.625 7.57663 28.625 7.875V7.9515C31.7728 8.28 34.1747 9.63337 35.7384 11.3557C36.8139 12.5404 37.526 13.9523 37.7499 15.3293L37.8714 15.4226C39.1359 16.4025 40.064 17.5905 39.8435 18.9529C39.6309 20.2691 38.4418 21.0701 37.3348 21.5595C37.055 21.6834 36.7697 21.7945 36.4798 21.8925C36.4933 22.0927 36.5 22.2953 36.5 22.5C36.4995 23.7071 36.2561 24.9018 35.7844 26.013C35.3126 27.1241 34.6222 28.129 33.7541 28.9678C32.8861 29.8067 31.8581 30.4623 30.7315 30.8957C29.6049 31.3292 28.4026 31.5315 27.1961 31.4908C25.9897 31.45 24.8037 31.1669 23.7089 30.6585C22.6141 30.15 21.6328 29.4264 20.8233 28.5309C20.0139 27.6354 19.3928 26.5862 18.9972 25.4458C18.6015 24.3053 18.4393 23.0969 18.5203 21.8925C18.2304 21.7945 17.9451 21.6834 17.6653 21.5595C16.5583 21.0701 15.3692 20.2691 15.1565 18.9529C14.936 17.5905 15.8642 16.4025 17.1287 15.4226L17.2715 15.3124C17.3003 15.1332 17.3364 14.9554 17.3795 14.7791C17.6762 13.6092 18.2172 12.5153 18.9669 11.5695C20.4744 9.648 22.9415 8.0955 26.375 7.8975V7.875C26.375 7.57663 26.4936 7.29048 26.7045 7.07951C26.9155 6.86853 27.2017 6.75 27.5 6.75ZM36.1175 18.495C36.3477 18.5783 36.5988 18.5843 36.8327 18.512C37.0666 18.4398 37.2705 18.2932 37.4135 18.0945C37.6352 18.4039 37.6273 18.5681 37.6228 18.594C37.6082 18.684 37.436 19.0553 36.4247 19.503C35.2445 20.025 33.4693 20.403 31.433 20.6168C31.3847 19.6062 30.9492 18.653 30.2169 17.955C29.4846 17.2569 28.5117 16.8674 27.5 16.8674C26.4883 16.8674 25.5154 17.2569 24.7831 17.955C24.0509 18.653 23.6154 19.6062 23.567 20.6168C21.5308 20.403 19.7555 20.025 18.5754 19.503C17.564 19.0553 17.3919 18.684 17.3773 18.594C17.3728 18.5681 17.3649 18.405 17.5865 18.0945C17.7453 18.3159 17.9791 18.4721 18.2444 18.5342C18.5097 18.5962 18.7885 18.5599 19.029 18.4319C19.2696 18.304 19.4555 18.0931 19.5523 17.8384C19.649 17.5837 19.6501 17.3025 19.5553 17.0471C19.4203 16.6826 19.3787 16.0785 19.5654 15.3112C19.7864 14.4534 20.1859 13.6519 20.7377 12.9589L20.75 12.9431V15.1875C20.75 15.4859 20.8686 15.772 21.0795 15.983C21.2905 16.194 21.5767 16.3125 21.875 16.3125C22.1734 16.3125 22.4595 16.194 22.6705 15.983C22.8815 15.772 23 15.4859 23 15.1875V11.0767C23.9248 10.5874 25.0442 10.2454 26.375 10.1509V12.9375C26.375 13.2359 26.4936 13.522 26.7045 13.733C26.9155 13.944 27.2017 14.0625 27.5 14.0625C27.7984 14.0625 28.0845 13.944 28.2955 13.733C28.5065 13.522 28.625 13.2359 28.625 12.9375V10.2161C29.9413 10.3815 31.064 10.7584 32 11.2624V15.1875C32 15.4859 32.1186 15.772 32.3295 15.983C32.5405 16.194 32.8267 16.3125 33.125 16.3125C33.4234 16.3125 33.7095 16.194 33.9205 15.983C34.1315 15.772 34.25 15.4859 34.25 15.1875V13.0714C35.5055 14.5643 35.771 16.1437 35.4425 17.055C35.3412 17.3355 35.3554 17.6447 35.482 17.9147C35.6085 18.1847 35.8371 18.3935 36.1175 18.495ZM24.6504 23.5294C23.3485 23.4467 22.053 23.2833 20.7714 23.04C20.9064 24.7319 21.6738 26.3109 22.9208 27.4624C24.1677 28.6138 25.8027 29.2532 27.5 29.2532C29.1973 29.2532 30.8323 28.6138 32.0793 27.4624C33.3263 26.3109 34.0937 24.7319 34.2287 23.04C33.0362 23.274 31.7154 23.436 30.3497 23.5294C29.982 23.9151 29.5398 24.2221 29.05 24.4319C28.5602 24.6417 28.0329 24.7499 27.5 24.75C26.9672 24.7499 26.4399 24.6417 25.95 24.4319C25.4602 24.2221 25.0181 23.9151 24.6504 23.5294ZM29.1875 20.8125C29.1875 21.2601 29.0097 21.6893 28.6933 22.0057C28.3768 22.3222 27.9476 22.5 27.5 22.5C27.0525 22.5 26.6233 22.3222 26.3068 22.0057C25.9903 21.6893 25.8125 21.2601 25.8125 20.8125C25.8125 20.3649 25.9903 19.9357 26.3068 19.6193C26.6233 19.3028 27.0525 19.125 27.5 19.125C27.9476 19.125 28.3768 19.3028 28.6933 19.6193C29.0097 19.9357 29.1875 20.3649 29.1875 20.8125Z" fill="#B91C1C"/>
<path d="M27.5 43.875C28.0967 43.875 28.669 43.6379 29.091 43.216C29.5129 42.794 29.75 42.2217 29.75 41.625C29.75 41.0283 29.5129 40.456 29.091 40.034C28.669 39.6121 28.0967 39.375 27.5 39.375C26.9033 39.375 26.331 39.6121 25.909 40.034C25.4871 40.456 25.25 41.0283 25.25 41.625C25.25 42.2217 25.4871 42.794 25.909 43.216C26.331 43.6379 26.9033 43.875 27.5 43.875Z" fill="#B91C1C"/>
<path fill-rule="evenodd" clip-rule="evenodd" d="M22.4758 31.9492L26.375 34.8742H28.625L32.5242 31.9492C39.3811 33.0472 47.75 36.1005 47.75 40.4992V47.2492H7.25V40.4992C7.25 36.1005 15.6189 33.0472 22.4758 31.9492ZM29.3754 37.1242L33.0991 34.3308C34.2275 34.5378 35.3761 34.7977 36.5 35.1026V44.9992H38.75V35.7911C39.5375 36.0611 40.2924 36.3547 41 36.6708V44.9992H14V36.6708C14.7076 36.3558 15.4625 36.0611 16.25 35.7911V44.9992H18.5V35.1026C19.6239 34.7977 20.7725 34.5378 21.9009 34.3308L25.6246 37.1242H29.3754ZM44.7181 39.0255C45.3526 39.6825 45.5 40.1673 45.5 40.4992V44.9992H43.25V37.8622C43.8575 38.2515 44.348 38.643 44.7181 39.0266M10.2819 39.0266C10.6531 38.6441 11.1436 38.2526 11.75 37.8633V44.9992H9.5V40.4992C9.5 40.1673 9.64625 39.6825 10.2819 39.0255" fill="#B91C1C"/>
</svg>
