<svg width="40" height="40" viewBox="0 0 40 40" fill="none" xmlns="http://www.w3.org/2000/svg">
<path d="M20 30C18.0222 30 16.0888 29.4135 14.4443 28.3147C12.7998 27.2159 11.5181 25.6541 10.7612 23.8268C10.0043 21.9996 9.8063 19.9889 10.1922 18.0491C10.578 16.1093 11.5304 14.3275 12.9289 12.9289C14.3275 11.5304 16.1093 10.578 18.0491 10.1922C19.9889 9.8063 21.9996 10.0043 23.8268 10.7612C25.6541 11.5181 27.2159 12.7998 28.3147 14.4443C29.4135 16.0888 30 18.0222 30 20C29.9967 22.6512 28.9421 25.1928 27.0674 27.0674C25.1928 28.9421 22.6512 29.9967 20 30ZM20 12.5C18.5166 12.5 17.0666 12.9399 15.8332 13.764C14.5999 14.5881 13.6386 15.7594 13.0709 17.1299C12.5033 18.5003 12.3547 20.0083 12.6441 21.4632C12.9335 22.918 13.6478 24.2544 14.6967 25.3033C15.7456 26.3522 17.082 27.0665 18.5368 27.3559C19.9917 27.6453 21.4997 27.4968 22.8701 26.9291C24.2406 26.3614 25.4119 25.4002 26.236 24.1668C27.0601 22.9334 27.5 21.4834 27.5 20C27.4977 18.0116 26.7068 16.1053 25.3007 14.6993C23.8947 13.2932 21.9884 12.5023 20 12.5Z" fill="#B91C1C"/>
<path d="M37.5 17.5H34.775C34.2522 14.4346 32.7905 11.6072 30.5916 9.40839C28.3928 7.20955 25.5654 5.74778 22.5 5.225V2.5H17.5V5.225C14.4346 5.74778 11.6072 7.20955 9.40839 9.40839C7.20955 11.6072 5.74778 14.4346 5.225 17.5H2.5V22.5H5.225C5.74778 25.5654 7.20955 28.3928 9.40839 30.5916C11.6072 32.7905 14.4346 34.2522 17.5 34.775V37.5H22.5V34.775C25.5654 34.2522 28.3928 32.7905 30.5916 30.5916C32.7905 28.3928 34.2522 25.5654 34.775 22.5H37.5V17.5ZM20 32.5C17.5277 32.5 15.111 31.7669 13.0554 30.3934C10.9998 29.0199 9.3976 27.0676 8.45151 24.7835C7.50541 22.4995 7.25787 19.9861 7.74018 17.5614C8.2225 15.1366 9.41301 12.9093 11.1612 11.1612C12.9093 9.41301 15.1366 8.2225 17.5614 7.74018C19.9861 7.25787 22.4995 7.50541 24.7835 8.45151C27.0676 9.3976 29.0199 10.9998 30.3934 13.0554C31.7669 15.111 32.5 17.5277 32.5 20C32.4967 23.3142 31.1787 26.4917 28.8352 28.8352C26.4917 31.1787 23.3142 32.4967 20 32.5Z" fill="#B91C1C"/>
</svg>
