<svg width="56" height="56" viewBox="0 0 56 56" fill="none" xmlns="http://www.w3.org/2000/svg">
<path d="M25.6831 48.9997H22.4117C14.0467 48.9997 9.86541 48.9997 7.26608 46.3513C4.66675 43.703 4.66675 39.44 4.66675 30.9163C4.66675 22.3927 4.66675 18.1297 7.26608 15.4813C9.86541 12.833 14.0467 12.833 22.4117 12.833H31.2854C39.6504 12.833 43.8341 12.833 46.4334 15.4813C48.4331 17.5183 48.8927 20.512 49.0001 25.6663" stroke="#B91C1C" stroke-width="3.5" stroke-linecap="round" stroke-linejoin="round"/>
<path d="M37.3335 12.8332L37.1002 12.1098C35.9452 8.5165 35.3688 6.71984 33.9945 5.69317C32.6178 4.6665 30.7932 4.6665 27.1368 4.6665H26.5232C22.8715 4.6665 21.0445 4.6665 19.6702 5.69317C18.2935 6.71984 17.7172 8.5165 16.5622 12.1098L16.3335 12.8332M39.9258 30.9282C40.3575 30.5315 40.5722 30.3332 40.8335 30.3332C41.0948 30.3332 41.3095 30.5315 41.7412 30.9282L43.4048 32.4612C43.6055 32.6455 43.7058 32.7388 43.8295 32.7832C43.9555 32.8298 44.0908 32.8252 44.3662 32.8135L46.6108 32.7248C47.1895 32.7015 47.4788 32.6922 47.6772 32.8578C47.8755 33.0235 47.9152 33.3105 47.9922 33.8845L48.3002 36.1852C48.3375 36.4512 48.3538 36.5818 48.4192 36.6985C48.4845 36.8105 48.5895 36.8922 48.7995 37.0578L50.6102 38.4812C51.0582 38.8358 51.2822 39.0108 51.3265 39.2628C51.3708 39.5148 51.2192 39.7575 50.9205 40.2428L49.6932 42.2192C49.5532 42.4455 49.4832 42.5598 49.4598 42.6858C49.4365 42.8118 49.4645 42.9448 49.5205 43.2062L50.0082 45.4882C50.1248 46.0482 50.1855 46.3282 50.0572 46.5522C49.9288 46.7762 49.6558 46.8648 49.1122 47.0422L46.9515 47.7445C46.6948 47.8285 46.5642 47.8705 46.4638 47.9545C46.3635 48.0408 46.3005 48.1622 46.1768 48.4025L45.1222 50.4348C44.8538 50.9552 44.7185 51.2142 44.4735 51.3028C44.2285 51.3915 43.9602 51.2795 43.4188 51.0555L41.3468 50.1968C41.0925 50.0918 40.9665 50.0382 40.8335 50.0382C40.7005 50.0382 40.5745 50.0918 40.3202 50.1968L38.2482 51.0555C37.7068 51.2795 37.4385 51.3915 37.1935 51.3028C36.9485 51.2142 36.8132 50.9528 36.5448 50.4348L35.4902 48.4025C35.3642 48.1622 35.3035 48.0408 35.2032 47.9568C35.1028 47.8728 34.9722 47.8285 34.7155 47.7468L32.5548 47.0422C32.0112 46.8648 31.7382 46.7762 31.6098 46.5522C31.4815 46.3282 31.5398 46.0505 31.6588 45.4882L32.1488 43.2062C32.2025 42.9448 32.2305 42.8142 32.2072 42.6882C32.1593 42.5194 32.0802 42.3611 31.9738 42.2215L30.7488 40.2428C30.4455 39.7575 30.2962 39.5148 30.3405 39.2628C30.3848 39.0108 30.6088 38.8358 31.0568 38.4835L32.8675 37.0602C33.0775 36.8922 33.1825 36.8105 33.2478 36.6962C33.3132 36.5818 33.3295 36.4512 33.3645 36.1828L33.6748 33.8845C33.7518 33.3128 33.7915 33.0235 33.9898 32.8578C34.1882 32.6922 34.4775 32.7015 35.0562 32.7248L37.3032 32.8135C37.5762 32.8252 37.7115 32.8298 37.8375 32.7832C37.9612 32.7365 38.0615 32.6455 38.2622 32.4612L39.9258 30.9282Z" stroke="#B91C1C" stroke-width="3.5" stroke-linecap="round" stroke-linejoin="round"/>
</svg>
