<svg width="54" height="54" viewBox="0 0 54 54" fill="none" xmlns="http://www.w3.org/2000/svg">
<path d="M22.5 37.125L29.25 39.375C29.25 39.375 46.125 36 48.375 36C50.625 36 50.625 38.25 48.375 40.5C46.125 42.75 38.25 49.5 31.5 49.5C24.75 49.5 20.25 46.125 15.75 46.125H4.5" stroke="#B91C1C" stroke-width="3.2" stroke-linecap="round" stroke-linejoin="round"/>
<path d="M4.5 32.625C6.75 30.375 11.25 27 15.75 27C20.25 27 30.9375 31.5 32.625 33.75C34.3125 36 29.25 39.375 29.25 39.375M18 20.25V11.25C18 10.6533 18.2371 10.081 18.659 9.65901C19.081 9.23705 19.6533 9 20.25 9H47.25C47.8467 9 48.419 9.23705 48.841 9.65901C49.2629 10.081 49.5 10.6533 49.5 11.25V29.25" stroke="#B91C1C" stroke-width="3.2" stroke-linecap="round" stroke-linejoin="round"/>
<path d="M28.125 9H39.375V19.125H28.125V9Z" stroke="#B91C1C" stroke-width="3.2" stroke-linecap="round" stroke-linejoin="round"/>
</svg>
