<svg width="56" height="56" viewBox="0 0 56 56" fill="none" xmlns="http://www.w3.org/2000/svg">
<path d="M15.1667 20.9998H12.8334M24.5001 20.9998H22.1667M15.1667 13.9998H12.8334M24.5001 13.9998H22.1667M43.1667 34.9998H40.8334M43.1667 25.6665H40.8334M32.6667 18.6665V51.3332H42.0001C46.4007 51.3332 48.5987 51.3332 49.9661 49.9658C51.3334 48.5985 51.3334 46.4005 51.3334 41.9998V27.9998C51.3334 23.5992 51.3334 21.4012 49.9661 20.0338C48.5987 18.6665 46.4007 18.6665 42.0001 18.6665H32.6667ZM32.6667 18.6665C32.6667 12.0678 32.6667 8.76617 30.6157 6.7175C28.5671 4.6665 25.2654 4.6665 18.6667 4.6665C12.0681 4.6665 8.76641 4.6665 6.71775 6.7175C4.66675 8.76617 4.66675 12.0678 4.66675 18.6665V23.3332M18.7251 32.5615C18.7387 33.183 18.628 33.8009 18.3994 34.379C18.1709 34.9571 17.8292 35.4837 17.3944 35.9279C16.9596 36.3721 16.4404 36.725 15.8673 36.9658C15.2942 37.2066 14.6788 37.3305 14.0572 37.3302C13.4356 37.3298 12.8203 37.2053 12.2475 36.964C11.6746 36.7226 11.1558 36.3692 10.7214 35.9246C10.287 35.4799 9.94583 34.953 9.7179 34.3746C9.48997 33.7963 9.37988 33.1783 9.39408 32.5568C9.42195 31.3375 9.92605 30.1776 10.7985 29.3253C11.6709 28.4731 12.8423 27.9962 14.0619 27.9968C15.2815 27.9974 16.4524 28.4755 17.3239 29.3286C18.1955 30.1817 18.6984 31.3422 18.7251 32.5615ZM4.83008 47.1565C7.29875 43.3578 11.2211 41.9345 14.0584 41.9368C16.8957 41.9392 20.7014 43.3578 23.1724 47.1565C23.3311 47.4015 23.3754 47.7048 23.2307 47.9592C22.6544 48.9835 20.8601 51.0158 19.5674 51.1512C18.0764 51.3098 14.1844 51.3332 14.0607 51.3332C13.9371 51.3332 9.92375 51.3098 8.43741 51.1512C7.14008 51.0135 5.34808 48.9835 4.76941 47.9592C4.7045 47.8328 4.6758 47.6909 4.68651 47.5493C4.69722 47.4076 4.74691 47.2717 4.83008 47.1565Z" stroke="#B91C1C" stroke-width="3.5" stroke-linecap="round" stroke-linejoin="round"/>
</svg>
