<svg width="55" height="54" viewBox="0 0 55 54" fill="none" xmlns="http://www.w3.org/2000/svg">
<path d="M49.4375 21.0938H46.0625V12.6562H49.4375C50.1088 12.6562 50.7527 12.3896 51.2274 11.9149C51.7021 11.4402 51.9688 10.7963 51.9688 10.125C51.9688 9.45367 51.7021 8.80984 51.2274 8.33514C50.7527 7.86043 50.1088 7.59375 49.4375 7.59375H45.2188C44.8258 7.0698 44.3162 6.64453 43.7304 6.35164C43.1446 6.05874 42.4987 5.90625 41.8438 5.90625H36.7812C36.1263 5.90625 35.4804 6.05874 34.8946 6.35164C34.3088 6.64453 33.7992 7.0698 33.4062 7.59375H30.875C24.8351 7.60045 19.0445 10.0028 14.7736 14.2736C10.5028 18.5445 8.10045 24.3351 8.09375 30.375V32.9062C7.5698 33.2992 7.14453 33.8088 6.85164 34.3946C6.55874 34.9804 6.40625 35.6263 6.40625 36.2812V41.3438C6.40625 41.9987 6.55874 42.6446 6.85164 43.2304C7.14453 43.8162 7.5698 44.3258 8.09375 44.7188V48.9375C8.09375 49.6088 8.36043 50.2527 8.83514 50.7274C9.30984 51.2021 9.95367 51.4688 10.625 51.4688C11.2963 51.4688 11.9402 51.2021 12.4149 50.7274C12.8896 50.2527 13.1562 49.6088 13.1562 48.9375V45.5625H21.5938V48.9375C21.5938 49.6088 21.8604 50.2527 22.3351 50.7274C22.8098 51.2021 23.4537 51.4688 24.125 51.4688C24.7963 51.4688 25.4402 51.2021 25.9149 50.7274C26.3896 50.2527 26.6562 49.6088 26.6562 48.9375V44.7188C27.1802 44.3258 27.6055 43.8162 27.8984 43.2304C28.1913 42.6446 28.3438 41.9987 28.3438 41.3438V36.2812C28.3438 35.6263 28.1913 34.9804 27.8984 34.3946C27.6055 33.8088 27.1802 33.2992 26.6562 32.9062V30.375C26.6562 29.2561 27.1007 28.1831 27.8919 27.3919C28.6831 26.6007 29.7561 26.1562 30.875 26.1562H33.4062C33.7992 26.6802 34.3088 27.1055 34.8946 27.3984C35.4804 27.6913 36.1263 27.8438 36.7812 27.8438H41.8438C42.4987 27.8438 43.1446 27.6913 43.7304 27.3984C44.3162 27.1055 44.8258 26.6802 45.2188 26.1562H49.4375C50.1088 26.1562 50.7527 25.8896 51.2274 25.4149C51.7021 24.9402 51.9688 24.2963 51.9688 23.625C51.9688 22.9537 51.7021 22.3098 51.2274 21.8351C50.7527 21.3604 50.1088 21.0938 49.4375 21.0938ZM23.2812 37.125V40.5H11.4688V37.125H23.2812ZM21.5938 30.375V32.0625H13.1562V30.375C13.1613 25.6772 15.0297 21.1733 18.3515 17.8515C21.6733 14.5297 26.1772 12.6613 30.875 12.6562H32.5625V21.0938H30.875C28.4143 21.0965 26.0552 22.0753 24.3152 23.8152C22.5753 25.5552 21.5965 27.9143 21.5938 30.375ZM37.625 10.9688H41V22.7812H37.625V10.9688Z" fill="#B91C1C"/>
</svg>
