<svg width="40" height="40" viewBox="0 0 40 40" fill="none" xmlns="http://www.w3.org/2000/svg">
<path d="M4.16675 29.1667C4.16675 28.7246 4.34234 28.3007 4.6549 27.9882C4.96746 27.6756 5.39139 27.5 5.83341 27.5H34.1667C34.6088 27.5 35.0327 27.6756 35.3453 27.9882C35.6578 28.3007 35.8334 28.7246 35.8334 29.1667V35H4.16675V29.1667Z" fill="#B91C1C" stroke="#B91C1C" stroke-width="3.33333" stroke-linecap="round" stroke-linejoin="round"/>
<path d="M35 15H28.3334L23.3334 10L28.3334 5H35" stroke="#B91C1C" stroke-width="3.33333" stroke-linecap="round" stroke-linejoin="round"/>
<path d="M6.66671 13.3337C8.50766 13.3337 10 11.8413 10 10.0003C10 8.15938 8.50766 6.66699 6.66671 6.66699C4.82576 6.66699 3.33337 8.15938 3.33337 10.0003C3.33337 11.8413 4.82576 13.3337 6.66671 13.3337Z" fill="#B91C1C" stroke="#B91C1C" stroke-width="3.33333"/>
<path d="M10 10H23.3334M8.33337 13.3333L15 27.5" stroke="#B91C1C" stroke-width="3.33333" stroke-linecap="round" stroke-linejoin="round"/>
</svg>
