<svg width="41" height="40" viewBox="0 0 41 40" fill="none" xmlns="http://www.w3.org/2000/svg">
<path d="M17.1665 10.334C17.1665 7.16732 15.1665 4.33398 12.1665 3.33398V9.50065H7.1665V3.33398C4.1665 4.33398 2.1665 7.16732 2.1665 10.334C2.1665 13.5007 4.1665 16.334 7.1665 17.334V35.6673C7.1665 36.334 7.49984 36.6673 7.99984 36.6673H11.3332C11.8332 36.6673 12.1665 36.334 12.1665 35.834V17.5007C15.1665 16.5007 17.1665 13.6673 17.1665 10.334ZM27.1665 13.334C20.6665 13.5007 15.4998 18.6673 15.4998 25.0007C15.4998 31.5007 20.6665 36.6673 27.1665 36.6673C33.6665 36.6673 38.8332 31.5007 38.8332 25.0007C38.8332 18.5007 33.6665 13.334 27.1665 13.334ZM27.1665 33.334C22.4998 33.334 18.8332 29.6673 18.8332 25.0007C18.8332 20.334 22.4998 16.6673 27.1665 16.6673C31.8332 16.6673 35.4998 20.334 35.4998 25.0007C35.4998 29.6673 31.8332 33.334 27.1665 33.334ZM25.4998 18.334V26.6673L31.4998 30.334L32.8332 28.334L27.9998 25.5007V18.334H25.4998Z" fill="#B91C1C"/>
</svg>
