<?xml version="1.0" standalone="no"?>
<!DOCTYPE svg PUBLIC "-//W3C//DTD SVG 20010904//EN"
 "http://www.w3.org/TR/2001/REC-SVG-20010904/DTD/svg10.dtd">
<svg version="1.0" xmlns="http://www.w3.org/2000/svg"
 width="360.000000pt" height="360.000000pt" viewBox="0 0 360.000000 360.000000"
 preserveAspectRatio="xMidYMid meet">

<g transform="translate(0.000000,360.000000) scale(0.100000,-0.100000)"
fill="#000000" stroke="none">
<path d="M1720 3110 c-164 -22 -288 -87 -406 -211 -67 -72 -101 -126 -137
-224 -39 -106 -49 -267 -22 -378 73 -301 337 -510 645 -510 257 0 483 138 592
363 51 106 64 150 74 261 13 145 -47 333 -145 457 -136 171 -385 272 -601 242z"/>
<path d="M1625 1696 c-386 -65 -694 -280 -883 -617 -89 -157 -151 -402 -143
-561 1 -17 65 -18 1207 -18 l1207 0 -7 83 c-46 547 -427 987 -951 1099 -118
25 -325 32 -430 14z"/>
</g>
</svg>
