<svg width="84" height="84" viewBox="0 0 84 84" fill="none" xmlns="http://www.w3.org/2000/svg">
<rect width="84" height="84" rx="42" fill="#0E2D65"/>
<path d="M42 56C39.2311 56 36.5243 55.1789 34.222 53.6406C31.9197 52.1022 30.1253 49.9157 29.0657 47.3576C28.0061 44.7994 27.7288 41.9845 28.269 39.2687C28.8092 36.553 30.1426 34.0584 32.1005 32.1005C34.0584 30.1426 36.553 28.8092 39.2687 28.269C41.9845 27.7288 44.7994 28.0061 47.3576 29.0657C49.9157 30.1253 52.1022 31.9197 53.6406 34.222C55.1789 36.5243 56 39.2311 56 42C55.9954 45.7116 54.5189 49.2699 51.8944 51.8944C49.2699 54.5189 45.7116 55.9954 42 56ZM42 31.5C39.9233 31.5 37.8932 32.1158 36.1665 33.2696C34.4398 34.4233 33.094 36.0632 32.2993 37.9818C31.5046 39.9005 31.2966 42.0117 31.7018 44.0485C32.1069 46.0853 33.1069 47.9562 34.5754 49.4246C36.0438 50.8931 37.9148 51.8931 39.9516 52.2983C41.9884 52.7034 44.0996 52.4955 46.0182 51.7007C47.9368 50.906 49.5767 49.5602 50.7304 47.8335C51.8842 46.1068 52.5 44.0767 52.5 42C52.4968 39.2162 51.3895 36.5474 49.421 34.579C47.4526 32.6105 44.7838 31.5032 42 31.5Z" fill="white"/>
<path d="M66.5 38.5H62.685C61.9531 34.2085 59.9066 30.2501 56.8283 27.1717C53.7499 24.0934 49.7915 22.0469 45.5 21.315V17.5H38.5V21.315C34.2085 22.0469 30.2501 24.0934 27.1717 27.1717C24.0934 30.2501 22.0469 34.2085 21.315 38.5H17.5V45.5H21.315C22.0469 49.7915 24.0934 53.7499 27.1717 56.8283C30.2501 59.9066 34.2085 61.9531 38.5 62.685V66.5H45.5V62.685C49.7915 61.9531 53.7499 59.9066 56.8283 56.8283C59.9066 53.7499 61.9531 49.7915 62.685 45.5H66.5V38.5ZM42 59.5C38.5388 59.5 35.1554 58.4736 32.2775 56.5507C29.3997 54.6278 27.1566 51.8947 25.8321 48.697C24.5076 45.4993 24.161 41.9806 24.8363 38.5859C25.5115 35.1913 27.1782 32.0731 29.6256 29.6256C32.0731 27.1782 35.1913 25.5115 38.5859 24.8363C41.9806 24.161 45.4993 24.5076 48.697 25.8321C51.8947 27.1566 54.6278 29.3997 56.5507 32.2775C58.4736 35.1554 59.5 38.5388 59.5 42C59.4954 46.6399 57.6501 51.0884 54.3693 54.3693C51.0884 57.6501 46.6399 59.4954 42 59.5Z" fill="white"/>
</svg>
