<svg width="16" height="16" viewBox="0 0 16 16" fill="none" xmlns="http://www.w3.org/2000/svg">
<path d="M7.99996 12.0998C7.2465 12.0998 6.50997 11.8763 5.8835 11.4577C5.25702 11.0391 4.76875 10.4442 4.48041 9.74808C4.19208 9.05198 4.11664 8.28601 4.26363 7.54704C4.41062 6.80806 4.77344 6.12927 5.30621 5.5965C5.83899 5.06373 6.51778 4.7009 7.25675 4.55391C7.99573 4.40692 8.7617 4.48236 9.4578 4.7707C10.1539 5.05903 10.7489 5.54731 11.1675 6.17378C11.5861 6.80025 11.8095 7.53679 11.8095 8.29024C11.8082 9.3002 11.4065 10.2684 10.6923 10.9826C9.97815 11.6967 9.00992 12.0985 7.99996 12.0998ZM7.99996 5.4331C7.43487 5.4331 6.88247 5.60066 6.41261 5.91461C5.94276 6.22856 5.57655 6.67478 5.3603 7.19686C5.14405 7.71893 5.08747 8.29341 5.19771 8.84764C5.30796 9.40187 5.58007 9.91097 5.97965 10.3105C6.37923 10.7101 6.88832 10.9822 7.44255 11.0925C7.99679 11.2027 8.57126 11.1461 9.09334 10.9299C9.61541 10.7136 10.0616 10.3474 10.3756 9.87758C10.6895 9.40773 10.8571 8.85533 10.8571 8.29024C10.8562 7.53275 10.5549 6.80653 10.0193 6.27091C9.48366 5.73528 8.75745 5.43398 7.99996 5.4331Z" fill="white"/>
<path d="M14.6663 7.33782H13.6282C13.4291 6.17006 12.8722 5.09296 12.0346 4.2553C11.1969 3.41765 10.1198 2.86078 8.95206 2.66163V1.62354H7.04729V2.66163C5.87953 2.86078 4.80243 3.41765 3.96478 4.2553C3.12712 5.09296 2.57026 6.17006 2.3711 7.33782H1.33301V9.24258H2.3711C2.57026 10.4103 3.12712 11.4874 3.96478 12.3251C4.80243 13.1628 5.87953 13.7196 7.04729 13.9188V14.9569H8.95206V13.9188C10.1198 13.7196 11.1969 13.1628 12.0346 12.3251C12.8722 11.4874 13.4291 10.4103 13.6282 9.24258H14.6663V7.33782ZM7.99967 13.0521C7.05786 13.0521 6.13719 12.7728 5.3541 12.2496C4.57101 11.7263 3.96067 10.9826 3.60025 10.1125C3.23983 9.24238 3.14553 8.28492 3.32927 7.3612C3.51301 6.43748 3.96653 5.58899 4.6325 4.92303C5.29846 4.25706 6.14695 3.80353 7.07067 3.6198C7.99439 3.43606 8.95185 3.53036 9.82198 3.89078C10.6921 4.25119 11.4358 4.86154 11.9591 5.64463C12.4823 6.42772 12.7616 7.34839 12.7616 8.2902C12.7603 9.55275 12.2582 10.7632 11.3655 11.656C10.4727 12.5487 9.26222 13.0508 7.99967 13.0521Z" fill="white"/>
</svg>
